<?xml version="1.0" encoding="UTF-8"?>
<svg version="1.1" xmlns="http://www.w3.org/2000/svg" width="90" height="90">
<path d="M0 0 C2.62463004 0.32618859 3.66969134 0.75384461 5.43725586 2.73999023 C6.10059937 3.79488647 6.10059937 3.79488647 6.77734375 4.87109375 C7.54860596 6.0945752 7.54860596 6.0945752 8.33544922 7.34277344 C11.49282877 12.62020044 14.54446304 17.95450168 17.5625 23.3125 C21.59357 30.45637817 25.62816812 37.5827767 29.93359375 44.56640625 C30.53679443 45.55165283 31.13999512 46.53689941 31.76147461 47.55200195 C32.88959921 49.38383803 34.03159753 51.20722933 35.18969727 53.02026367 C38.45506552 58.34923205 39.83662721 61.85029591 39 68.125 C36.11319911 71.01180089 34.05345767 70.37885768 30.01171875 70.38378906 C28.93345322 70.38904602 28.93345322 70.38904602 27.83340454 70.39440918 C25.45133884 70.40322965 23.06956885 70.39737636 20.6875 70.390625 C19.03605085 70.39197156 17.38460209 70.39391202 15.7331543 70.39642334 C12.26965567 70.39937503 8.8062601 70.39507557 5.34277344 70.38574219 C0.89704689 70.37434758 -3.5484382 70.38090682 -7.99415588 70.39288712 C-11.40500721 70.40010454 -14.81580102 70.39781834 -18.22665405 70.39263153 C-19.86616036 70.39129471 -21.50567185 70.3929439 -23.14517212 70.39759064 C-25.43416226 70.402654 -27.72275808 70.39494862 -30.01171875 70.38378906 C-31.31584717 70.38219788 -32.61997559 70.38060669 -33.96362305 70.37896729 C-37 70.125 -37 70.125 -39 68.125 C-40.13351584 60.37491496 -36.95743339 55.69093296 -32.9375 49.25 C-31.65373208 47.12703683 -30.37122541 45.00331057 -29.08984375 42.87890625 C-28.41937012 41.77820801 -27.74889648 40.67750977 -27.05810547 39.54345703 C-24.97462792 36.08285767 -22.94578744 32.59654697 -20.94140625 29.08984375 C-20.61019272 28.51077271 -20.27897919 27.93170166 -19.93772888 27.33508301 C-18.34026762 24.53928673 -16.74601113 21.74166883 -15.15209961 18.94384766 C-12.44706965 14.23094892 -9.71037324 9.53878409 -6.8125 4.94140625 C-6.14154297 3.87128296 -6.14154297 3.87128296 -5.45703125 2.77954102 C-3.67957895 0.76114386 -2.65475634 0.3246577 0 0 Z M-3 27.125 C-3 33.065 -3 39.005 -3 45.125 C-1.02 45.125 0.96 45.125 3 45.125 C3 39.185 3 33.245 3 27.125 C1.02 27.125 -0.96 27.125 -3 27.125 Z M-2 52.125 C-2.33 53.775 -2.66 55.425 -3 57.125 C-0.525 57.62 -0.525 57.62 2 58.125 C2.33 56.475 2.66 54.825 3 53.125 C1.35 52.795 -0.3 52.465 -2 52.125 Z " fill="#000000" transform="translate(45,7.875)"/>
</svg>
